<svg width="32" height="32" viewBox="0 0 32 32" fill="none" xmlns="http://www.w3.org/2000/svg">
<path d="M24 0C28.4183 0 32 3.58172 32 8V24C32 28.4183 28.4183 32 24 32H8C3.58172 32 0 28.4183 0 24V8C0 3.58172 3.58172 0 8 0H24Z" fill="#CCFBF1"/>
<path d="M24 0C28.4183 0 32 3.58172 32 8V24C32 28.4183 28.4183 32 24 32H8C3.58172 32 0 28.4183 0 24V8C0 3.58172 3.58172 0 8 0H24Z" stroke="#E5E7EB"/>
<path d="M22.125 26H9.875V6H22.125V26Z" stroke="#E5E7EB"/>
<g clip-path="url(#clip0_285_2520)">
<path d="M11.625 9.625C10.6598 9.625 9.875 10.4098 9.875 11.375V20.125C9.875 21.0902 10.6598 21.875 11.625 21.875H20.375C21.3402 21.875 22.125 21.0902 22.125 20.125V11.375C22.125 10.4098 21.3402 9.625 20.375 9.625H11.625ZM19.0898 14.4648L15.5898 17.9648C15.3328 18.2219 14.9172 18.2219 14.6629 17.9648L12.9129 16.2148C12.6559 15.9578 12.6559 15.5422 12.9129 15.2879C13.1699 15.0336 13.5855 15.0309 13.8398 15.2879L15.125 16.573L18.1602 13.5352C18.4172 13.2781 18.8328 13.2781 19.0871 13.5352C19.3414 13.7922 19.3441 14.2078 19.0871 14.4621L19.0898 14.4648Z" fill="#0D9488"/>
</g>
<defs>
<clipPath id="clip0_285_2520">
<path d="M9.875 8.75H22.125V22.75H9.875V8.75Z" fill="white"/>
</clipPath>
</defs>
</svg>
