<svg width="14" height="11" viewBox="0 0 14 11" fill="none" xmlns="http://www.w3.org/2000/svg">
<path d="M1.3125 0.5C0.587891 0.5 0 1.08789 0 1.8125C0 2.22539 0.194141 2.61367 0.525 2.8625L6.475 7.325C6.78672 7.55742 7.21328 7.55742 7.525 7.325L13.475 2.8625C13.8059 2.61367 14 2.22539 14 1.8125C14 1.08789 13.4121 0.5 12.6875 0.5H1.3125ZM0 3.5625V9.25C0 10.2152 0.784766 11 1.75 11H12.25C13.2152 11 14 10.2152 14 9.25V3.5625L8.05 8.025C7.42656 8.49258 6.57344 8.49258 5.95 8.025L0 3.5625Z" fill="#6B7280"/>
</svg>
