<svg width="20" height="28" viewBox="0 0 20 28" fill="none" xmlns="http://www.w3.org/2000/svg">
<path d="M20 28H0V0H20V28Z" stroke="#E5E7EB"/>
<path d="M20 23.5H0V3.5H20V23.5Z" stroke="#E5E7EB"/>
<path d="M1.875 6C0.839844 6 0 6.83984 0 7.875C0 8.46484 0.277344 9.01953 0.75 9.375L9.25 15.75C9.69531 16.082 10.3047 16.082 10.75 15.75L19.25 9.375C19.7227 9.01953 20 8.46484 20 7.875C20 6.83984 19.1602 6 18.125 6H1.875ZM0 10.375V18.5C0 19.8789 1.12109 21 2.5 21H17.5C18.8789 21 20 19.8789 20 18.5V10.375L11.5 16.75C10.6094 17.418 9.39062 17.418 8.5 16.75L0 10.375Z" fill="#3B82F6"/>
</svg>
