<svg width="20" height="28" viewBox="0 0 20 28" fill="none" xmlns="http://www.w3.org/2000/svg">
<path d="M20 28H0V0H20V28Z" stroke="#E5E7EB"/>
<g clip-path="url(#clip0_268_618)">
<path d="M2.5 11.6289L10 6.07422L17.5 11.6289V13.4805L11.3086 18.0703C10.9297 18.3516 10.4727 18.5 10 18.5C9.52734 18.5 9.07031 18.3477 8.69141 18.0703L2.5 13.4805V11.6289ZM10 3.5C9.52734 3.5 9.07031 3.65234 8.69141 3.92969L1.01172 9.62109C0.375 10.0938 0 10.8359 0 11.6289V21C0 22.3789 1.12109 23.5 2.5 23.5H17.5C18.8789 23.5 20 22.3789 20 21V11.6289C20 10.8359 19.625 10.0898 18.9883 9.62109L11.3086 3.92969C10.9297 3.65234 10.4727 3.5 10 3.5Z" fill="#6366F1"/>
</g>
<defs>
<clipPath id="clip0_268_618">
<path d="M0 3.5H20V23.5H0V3.5Z" fill="white"/>
</clipPath>
</defs>
</svg>
