<svg width="23" height="28" viewBox="0 0 23 28" fill="none" xmlns="http://www.w3.org/2000/svg">
<path d="M22.5 28H0V0H22.5V28Z" stroke="#E5E7EB"/>
<g clip-path="url(#clip0_268_545)">
<path d="M2.5 3.5C1.12109 3.5 0 4.62109 0 6V17.25C0 18.6289 1.12109 19.75 2.5 19.75H9.375L8.95703 21H6.25C5.55859 21 5 21.5586 5 22.25C5 22.9414 5.55859 23.5 6.25 23.5H16.25C16.9414 23.5 17.5 22.9414 17.5 22.25C17.5 21.5586 16.9414 21 16.25 21H13.543L13.125 19.75H20C21.3789 19.75 22.5 18.6289 22.5 17.25V6C22.5 4.62109 21.3789 3.5 20 3.5H2.5ZM20 6V14.75H2.5V6H20Z" fill="#A855F7"/>
</g>
<defs>
<clipPath id="clip0_268_545">
<path d="M0 3.5H22.5V23.5H0V3.5Z" fill="white"/>
</clipPath>
</defs>
</svg>
