<svg width="18" height="28" viewBox="0 0 18 28" fill="none" xmlns="http://www.w3.org/2000/svg">
<path d="M17.5 28H0V0H17.5V28Z" stroke="#E5E7EB"/>
<g clip-path="url(#clip0_268_595)">
<path d="M13.75 12.25C15.8203 12.25 17.5 10.5703 17.5 8.5C17.5 6.42969 15.8203 4.75 13.75 4.75C11.6797 4.75 10 6.42969 10 8.5C10 8.65625 10.0078 8.8125 10.0273 8.96484L6.35156 10.8008C5.67969 10.1484 4.76172 9.75 3.75 9.75C1.67969 9.75 0 11.4297 0 13.5C0 15.5703 1.67969 17.25 3.75 17.25C4.76172 17.25 5.67969 16.8516 6.35156 16.1992L10.0273 18.0352C10.0078 18.1875 10 18.3398 10 18.5C10 20.5703 11.6797 22.25 13.75 22.25C15.8203 22.25 17.5 20.5703 17.5 18.5C17.5 16.4297 15.8203 14.75 13.75 14.75C12.7383 14.75 11.8203 15.1484 11.1484 15.8008L7.47266 13.9648C7.49219 13.8125 7.5 13.6602 7.5 13.5C7.5 13.3398 7.49219 13.1875 7.47266 13.0352L11.1484 11.1992C11.8203 11.8516 12.7383 12.25 13.75 12.25Z" fill="#EC4899"/>
</g>
<defs>
<clipPath id="clip0_268_595">
<path d="M0 3.5H17.5V23.5H0V3.5Z" fill="white"/>
</clipPath>
</defs>
</svg>
