<svg width="11" height="15" viewBox="0 0 11 15" fill="none" xmlns="http://www.w3.org/2000/svg">
<path d="M0.4375 2.5C0.4375 1.53477 1.22227 0.75 2.1875 0.75H8.3125C9.27773 0.75 10.0625 1.53477 10.0625 2.5V13C10.0625 13.9652 9.27773 14.75 8.3125 14.75H2.1875C1.22227 14.75 0.4375 13.9652 0.4375 13V2.5ZM6.125 13C6.125 12.7679 6.03281 12.5454 5.86872 12.3813C5.70462 12.2172 5.48206 12.125 5.25 12.125C5.01794 12.125 4.79538 12.2172 4.63128 12.3813C4.46719 12.5454 4.375 12.7679 4.375 13C4.375 13.2321 4.46719 13.4546 4.63128 13.6187C4.79538 13.7828 5.01794 13.875 5.25 13.875C5.48206 13.875 5.70462 13.7828 5.86872 13.6187C6.03281 13.4546 6.125 13.2321 6.125 13ZM8.3125 2.5H2.1875V11.25H8.3125V2.5Z" fill="#6B7280"/>
</svg>
