<svg width="13" height="14" viewBox="0 0 13 14" fill="none" xmlns="http://www.w3.org/2000/svg">
<path d="M7.875 0H4.375H3.5C3.01602 0 2.625 0.391016 2.625 0.875C2.625 1.35898 3.01602 1.75 3.5 1.75V5.38125C3.5 5.70391 3.40977 6.02383 3.24023 6.29727L0.281641 11.107C0.0984375 11.4078 0 11.7496 0 12.1023C0 13.1496 0.850391 14 1.89766 14H10.3523C11.3996 14 12.25 13.1496 12.25 12.1023C12.25 11.7523 12.1516 11.4078 11.9684 11.107L9.00977 6.3C8.84023 6.02383 8.75 5.70664 8.75 5.38398V1.75C9.23398 1.75 9.625 1.35898 9.625 0.875C9.625 0.391016 9.23398 0 8.75 0H7.875ZM5.25 5.38125V1.75H7V5.38125C7 6.0293 7.18047 6.66367 7.51953 7.21602L8.46289 8.75H3.78711L4.73047 7.21602C5.06953 6.66367 5.25 6.0293 5.25 5.38125Z" fill="#6B7280"/>
</svg>
