<svg width="32" height="32" viewBox="0 0 32 32" fill="none" xmlns="http://www.w3.org/2000/svg">
<path d="M24 0C28.4183 0 32 3.58172 32 8V24C32 28.4183 28.4183 32 24 32H8C3.58172 32 0 28.4183 0 24V8C0 3.58172 3.58172 0 8 0H24Z" fill="#DCFCE7"/>
<path d="M24 0C28.4183 0 32 3.58172 32 8V24C32 28.4183 28.4183 32 24 32H8C3.58172 32 0 28.4183 0 24V8C0 3.58172 3.58172 0 8 0H24Z" stroke="#E5E7EB"/>
<path d="M22.125 26H9.875V6H22.125V26Z" stroke="#E5E7EB"/>
<g clip-path="url(#clip0_285_2512)">
<path d="M17.75 10.5C17.75 10.984 17.359 11.375 16.875 11.375H10.75C10.266 11.375 9.875 10.984 9.875 10.5C9.875 10.016 10.266 9.625 10.75 9.625H16.875C17.359 9.625 17.75 10.016 17.75 10.5ZM17.75 17.5C17.75 17.984 17.359 18.375 16.875 18.375H10.75C10.266 18.375 9.875 17.984 9.875 17.5C9.875 17.016 10.266 16.625 10.75 16.625H16.875C17.359 16.625 17.75 17.016 17.75 17.5ZM9.875 14C9.875 13.516 10.266 13.125 10.75 13.125H21.25C21.734 13.125 22.125 13.516 22.125 14C22.125 14.484 21.734 14.875 21.25 14.875H10.75C10.266 14.875 9.875 14.484 9.875 14ZM22.125 21C22.125 21.484 21.734 21.875 21.25 21.875H10.75C10.266 21.875 9.875 21.484 9.875 21C9.875 20.516 10.266 20.125 10.75 20.125H21.25C21.734 20.125 22.125 20.516 22.125 21Z" fill="#16A34A"/>
</g>
<defs>
<clipPath id="clip0_285_2512">
<path d="M9.875 8.75H22.125V22.75H9.875V8.75Z" fill="white"/>
</clipPath>
</defs>
</svg>
