<svg width="18" height="16" viewBox="0 0 18 16" fill="none" xmlns="http://www.w3.org/2000/svg">
<path d="M0 1.71429C0 0.767857 0.671875 0 1.5 0H4.5C5.32812 0 6 0.767857 6 1.71429V2.28571H12V1.71429C12 0.767857 12.6719 0 13.5 0H16.5C17.3281 0 18 0.767857 18 1.71429V5.14286C18 6.08929 17.3281 6.85714 16.5 6.85714H13.5C12.6719 6.85714 12 6.08929 12 5.14286V4.57143H6V5.14286C6 5.20357 5.99687 5.26429 5.99062 5.32143L8.5 9.14286H11.5C12.3281 9.14286 13 9.91072 13 10.8571V14.2857C13 15.2321 12.3281 16 11.5 16H8.5C7.67188 16 7 15.2321 7 14.2857V10.8571C7 10.7964 7.00313 10.7357 7.00938 10.6786L4.5 6.85714H1.5C0.671875 6.85714 0 6.08929 0 5.14286V1.71429Z" fill="#6B7280"/>
</svg>
