<svg width="20" height="28" viewBox="0 0 20 28" fill="none" xmlns="http://www.w3.org/2000/svg">
<path d="M20 28H0V0H20V28Z" stroke="#E5E7EB"/>
<path d="M20 23.5H0V3.5H20V23.5Z" stroke="#E5E7EB"/>
<path d="M2.5 6C2.5 5.30859 1.94141 4.75 1.25 4.75C0.558594 4.75 0 5.30859 0 6V19.125C0 20.8516 1.39844 22.25 3.125 22.25H18.75C19.4414 22.25 20 21.6914 20 21C20 20.3086 19.4414 19.75 18.75 19.75H3.125C2.78125 19.75 2.5 19.4688 2.5 19.125V6ZM18.3828 9.38281C18.8711 8.89453 18.8711 8.10156 18.3828 7.61328C17.8945 7.125 17.1016 7.125 16.6133 7.61328L12.5 11.7305L10.2578 9.48828C9.76953 9 8.97656 9 8.48828 9.48828L4.11328 13.8633C3.625 14.3516 3.625 15.1445 4.11328 15.6328C4.60156 16.1211 5.39453 16.1211 5.88281 15.6328L9.375 12.1445L11.6172 14.3867C12.1055 14.875 12.8984 14.875 13.3867 14.3867L18.3867 9.38672L18.3828 9.38281Z" fill="#F97316"/>
</svg>
