<svg width="32" height="32" viewBox="0 0 32 32" fill="none" xmlns="http://www.w3.org/2000/svg">
<path d="M24 0C28.4183 0 32 3.58172 32 8V24C32 28.4183 28.4183 32 24 32H8C3.58172 32 0 28.4183 0 24V8C0 3.58172 3.58172 0 8 0H24Z" fill="#E0E7FF"/>
<path d="M24 0C28.4183 0 32 3.58172 32 8V24C32 28.4183 28.4183 32 24 32H8C3.58172 32 0 28.4183 0 24V8C0 3.58172 3.58172 0 8 0H24Z" stroke="#E5E7EB"/>
<path d="M23 26H9V6H23V26Z" stroke="#E5E7EB"/>
<path d="M23 22.75H9V8.75H23V22.75Z" stroke="#E5E7EB"/>
<path d="M15.3821 19.8681C15.7239 20.2099 16.279 20.2099 16.6208 19.8681L21.8708 14.6181C22.2126 14.2763 22.2126 13.7212 21.8708 13.3794C21.529 13.0376 20.9739 13.0376 20.6321 13.3794L16.0001 18.0114L11.3681 13.3821C11.0263 13.0403 10.4712 13.0403 10.1294 13.3821C9.7876 13.7239 9.7876 14.279 10.1294 14.6208L15.3794 19.8708L15.3821 19.8681Z" fill="#4F46E5"/>
</svg>
