<svg width="32" height="32" viewBox="0 0 32 32" fill="none" xmlns="http://www.w3.org/2000/svg">
<path d="M24 0C28.4183 0 32 3.58172 32 8V24C32 28.4183 28.4183 32 24 32H8C3.58172 32 0 28.4183 0 24V8C0 3.58172 3.58172 0 8 0H24Z" fill="#FEF9C3"/>
<path d="M24 0C28.4183 0 32 3.58172 32 8V24C32 28.4183 28.4183 32 24 32H8C3.58172 32 0 28.4183 0 24V8C0 3.58172 3.58172 0 8 0H24Z" stroke="#E5E7EB"/>
<path d="M22.125 26H9.875V6H22.125V26Z" stroke="#E5E7EB"/>
<g clip-path="url(#clip0_285_2524)">
<path d="M12.5 9.625V10.5H11.1875C10.4629 10.5 9.875 11.0879 9.875 11.8125V13.125H22.125V11.8125C22.125 11.0879 21.5371 10.5 20.8125 10.5H19.5V9.625C19.5 9.14102 19.109 8.75 18.625 8.75C18.141 8.75 17.75 9.14102 17.75 9.625V10.5H14.25V9.625C14.25 9.14102 13.859 8.75 13.375 8.75C12.891 8.75 12.5 9.14102 12.5 9.625ZM22.125 14H9.875V21.4375C9.875 22.1621 10.4629 22.75 11.1875 22.75H20.8125C21.5371 22.75 22.125 22.1621 22.125 21.4375V14Z" fill="#CA8A04"/>
</g>
<defs>
<clipPath id="clip0_285_2524">
<path d="M9.875 8.75H22.125V22.75H9.875V8.75Z" fill="white"/>
</clipPath>
</defs>
</svg>
