<svg width="14" height="15" viewBox="0 0 14 15" fill="none" xmlns="http://www.w3.org/2000/svg">
<g clip-path="url(#clip0_290_278)">
<path d="M12.8953 1.34316C12.2965 0.744336 11.3285 0.744336 10.7297 1.34316L9.90664 2.16348L12.5836 4.84043L13.4066 4.01738C14.0055 3.41855 14.0055 2.45059 13.4066 1.85176L12.8953 1.34316ZM4.71406 7.35879C4.54727 7.52559 4.41875 7.73066 4.34492 7.95762L3.53555 10.3857C3.45625 10.6209 3.51914 10.8807 3.69414 11.0584C3.86914 11.2361 4.12891 11.2963 4.3668 11.217L6.79492 10.4076C7.01914 10.3338 7.22422 10.2053 7.39375 10.0385L11.9684 5.46113L9.28867 2.78145L4.71406 7.35879ZM2.625 2.4998C1.17578 2.4998 0 3.67559 0 5.1248V12.1248C0 13.574 1.17578 14.7498 2.625 14.7498H9.625C11.0742 14.7498 12.25 13.574 12.25 12.1248V9.4998C12.25 9.01582 11.859 8.6248 11.375 8.6248C10.891 8.6248 10.5 9.01582 10.5 9.4998V12.1248C10.5 12.6088 10.109 12.9998 9.625 12.9998H2.625C2.14102 12.9998 1.75 12.6088 1.75 12.1248V5.1248C1.75 4.64082 2.14102 4.2498 2.625 4.2498H5.25C5.73398 4.2498 6.125 3.85879 6.125 3.3748C6.125 2.89082 5.73398 2.4998 5.25 2.4998H2.625Z" fill="#374151"/>
</g>
<defs>
<clipPath id="clip0_290_278">
<path d="M0 0.75H14V14.75H0V0.75Z" fill="white"/>
</clipPath>
</defs>
</svg>
