<svg width="32" height="32" viewBox="0 0 32 32" fill="none" xmlns="http://www.w3.org/2000/svg">
<path d="M24 0C28.4183 0 32 3.58172 32 8V24C32 28.4183 28.4183 32 24 32H8C3.58172 32 0 28.4183 0 24V8C0 3.58172 3.58172 0 8 0H24Z" fill="#F3E8FF"/>
<path d="M24 0C28.4183 0 32 3.58172 32 8V24C32 28.4183 28.4183 32 24 32H8C3.58172 32 0 28.4183 0 24V8C0 3.58172 3.58172 0 8 0H24Z" stroke="#E5E7EB"/>
<path d="M23 26H9V6H23V26Z" stroke="#E5E7EB"/>
<path d="M23 22.75H9V8.75H23V22.75Z" stroke="#E5E7EB"/>
<path d="M10.3125 10.5C9.58789 10.5 9 11.0879 9 11.8125C9 12.2254 9.19414 12.6137 9.525 12.8625L15.475 17.325C15.7867 17.5574 16.2133 17.5574 16.525 17.325L22.475 12.8625C22.8059 12.6137 23 12.2254 23 11.8125C23 11.0879 22.4121 10.5 21.6875 10.5H10.3125ZM9 13.5625V19.25C9 20.2152 9.78477 21 10.75 21H21.25C22.2152 21 23 20.2152 23 19.25V13.5625L17.05 18.025C16.4266 18.4926 15.5734 18.4926 14.95 18.025L9 13.5625Z" fill="#9333EA"/>
</svg>
