<svg width="40" height="36" viewBox="0 0 40 36" fill="none" xmlns="http://www.w3.org/2000/svg">
<path d="M31.75 0C36.1683 0 39.75 3.58172 39.75 8V28C39.75 32.4183 36.1683 36 31.75 36H8C3.58172 36 0 32.4183 0 28V8C0 3.58172 3.58172 0 8 0H31.75Z" fill="#DBEAFE"/>
<path d="M31.75 0C36.1683 0 39.75 3.58172 39.75 8V28C39.75 32.4183 36.1683 36 31.75 36H8C3.58172 36 0 32.4183 0 28V8C0 3.58172 3.58172 0 8 0H31.75Z" stroke="#E5E7EB"/>
<path d="M27.75 26H12V9H27.75V26Z" stroke="#E5E7EB"/>
<g clip-path="url(#clip0_285_1775)">
<path d="M19.8748 11.625C17.6654 11.625 15.8963 12.6313 14.6084 13.8289C13.3287 15.0156 12.4729 16.4375 12.0682 17.4137C11.9779 17.6297 11.9779 17.8703 12.0682 18.0863C12.4729 19.0625 13.3287 20.4844 14.6084 21.6711C15.8963 22.8687 17.6654 23.875 19.8748 23.875C22.0842 23.875 23.8533 22.8687 25.1412 21.6711C26.4209 20.4816 27.2768 19.0625 27.6842 18.0863C27.7744 17.8703 27.7744 17.6297 27.6842 17.4137C27.2768 16.4375 26.4209 15.0156 25.1412 13.8289C23.8533 12.6313 22.0842 11.625 19.8748 11.625ZM15.9373 17.75C15.9373 16.7057 16.3521 15.7042 17.0906 14.9658C17.829 14.2273 18.8305 13.8125 19.8748 13.8125C20.9191 13.8125 21.9206 14.2273 22.659 14.9658C23.3975 15.7042 23.8123 16.7057 23.8123 17.75C23.8123 18.7943 23.3975 19.7958 22.659 20.5342C21.9206 21.2727 20.9191 21.6875 19.8748 21.6875C18.8305 21.6875 17.829 21.2727 17.0906 20.5342C16.3521 19.7958 15.9373 18.7943 15.9373 17.75ZM19.8748 16C19.8748 16.9652 19.09 17.75 18.1248 17.75C17.9307 17.75 17.7447 17.7172 17.5697 17.6598C17.4193 17.6105 17.2443 17.7035 17.2498 17.8621C17.258 18.0508 17.2854 18.2395 17.3373 18.4281C17.7119 19.8281 19.1529 20.6594 20.5529 20.2848C21.9529 19.9102 22.7842 18.4691 22.4096 17.0691C22.1061 15.9344 21.1025 15.1715 19.9869 15.125C19.8283 15.1195 19.7354 15.2918 19.7846 15.4449C19.842 15.6199 19.8748 15.8059 19.8748 16Z" fill="#1D4ED8"/>
</g>
<defs>
<clipPath id="clip0_285_1775">
<path d="M12 10.75H27.75V24.75H12V10.75Z" fill="white"/>
</clipPath>
</defs>
</svg>
