<svg width="32" height="32" viewBox="0 0 32 32" fill="none" xmlns="http://www.w3.org/2000/svg">
<path d="M24 0C28.4183 0 32 3.58172 32 8V24C32 28.4183 28.4183 32 24 32H8C3.58172 32 0 28.4183 0 24V8C0 3.58172 3.58172 0 8 0H24Z" fill="#FEE2E2"/>
<path d="M24 0C28.4183 0 32 3.58172 32 8V24C32 28.4183 28.4183 32 24 32H8C3.58172 32 0 28.4183 0 24V8C0 3.58172 3.58172 0 8 0H24Z" stroke="#E5E7EB"/>
<path d="M23 26H9V6H23V26Z" stroke="#E5E7EB"/>
<g clip-path="url(#clip0_285_2526)">
<path d="M16.875 11.739V18.3753C16.875 18.8593 16.484 19.2503 16 19.2503C15.516 19.2503 15.125 18.8593 15.125 18.3753V11.739L13.118 13.746C12.7762 14.0878 12.2211 14.0878 11.8793 13.746C11.5375 13.4042 11.5375 12.8491 11.8793 12.5073L15.3793 9.00732C15.7211 8.66553 16.2762 8.66553 16.618 9.00732L20.118 12.5073C20.4598 12.8491 20.4598 13.4042 20.118 13.746C19.7762 14.0878 19.2211 14.0878 18.8793 13.746L16.875 11.739ZM10.75 18.3753H14.25C14.25 19.3405 15.0348 20.1253 16 20.1253C16.9652 20.1253 17.75 19.3405 17.75 18.3753H21.25C22.2152 18.3753 23 19.1601 23 20.1253V21.0003C23 21.9655 22.2152 22.7503 21.25 22.7503H10.75C9.78477 22.7503 9 21.9655 9 21.0003V20.1253C9 19.1601 9.78477 18.3753 10.75 18.3753ZM20.8125 21.219C20.9865 21.219 21.1535 21.1499 21.2765 21.0268C21.3996 20.9038 21.4688 20.7368 21.4688 20.5628C21.4688 20.3887 21.3996 20.2218 21.2765 20.0988C21.1535 19.9757 20.9865 19.9065 20.8125 19.9065C20.6385 19.9065 20.4715 19.9757 20.3485 20.0988C20.2254 20.2218 20.1562 20.3887 20.1562 20.5628C20.1562 20.7368 20.2254 20.9038 20.3485 21.0268C20.4715 21.1499 20.6385 21.219 20.8125 21.219Z" fill="#DC2626"/>
</g>
<defs>
<clipPath id="clip0_285_2526">
<path d="M9 8.75H23V22.75H9V8.75Z" fill="white"/>
</clipPath>
</defs>
</svg>
