<svg width="32" height="40" viewBox="0 0 32 40" fill="none" xmlns="http://www.w3.org/2000/svg">
<path d="M32 40H0V0H32V40Z" stroke="#E5E7EB"/>
<path d="M24 30H8V10H24V30Z" stroke="#E5E7EB"/>
<path d="M24 28H8V12H24V28Z" stroke="#E5E7EB"/>
<path d="M8.12196 13.7156C8.32821 13.2781 8.76571 13 9.25008 13H22.7501C23.2345 13 23.672 13.2781 23.8782 13.7156C24.0845 14.1531 24.022 14.6688 23.7157 15.0438L18.0001 22.0281V26C18.0001 26.3781 17.7876 26.725 17.447 26.8938C17.1063 27.0625 16.7032 27.0281 16.4001 26.8L14.4001 25.3C14.147 25.1125 14.0001 24.8156 14.0001 24.5V22.0281L8.28133 15.0406C7.97821 14.6688 7.91258 14.15 8.12196 13.7156Z" fill="#9CA3AF"/>
</svg>
