<svg width="14" height="13" viewBox="0 0 14 13" fill="none" xmlns="http://www.w3.org/2000/svg">
<path d="M0 2.375C0 1.40977 0.784766 0.625 1.75 0.625H12.25C13.2152 0.625 14 1.40977 14 2.375V11.125C14 12.0902 13.2152 12.875 12.25 12.875H1.75C0.784766 12.875 0 12.0902 0 11.125V2.375ZM8.85391 5.28711C8.73086 5.10664 8.52852 5 8.3125 5C8.09648 5 7.89141 5.10664 7.77109 5.28711L5.39219 8.77617L4.66758 7.87109C4.5418 7.71523 4.35312 7.625 4.15625 7.625C3.95938 7.625 3.76797 7.71523 3.64492 7.87109L1.89492 10.0586C1.73633 10.2555 1.70625 10.5262 1.81563 10.7531C1.925 10.9801 2.15469 11.125 2.40625 11.125H5.03125H5.90625H11.5938C11.8371 11.125 12.0613 10.991 12.1734 10.775C12.2855 10.559 12.2719 10.2992 12.1352 10.0996L8.85391 5.28711ZM3.0625 5C3.4106 5 3.74444 4.86172 3.99058 4.61558C4.23672 4.36944 4.375 4.0356 4.375 3.6875C4.375 3.3394 4.23672 3.00556 3.99058 2.75942C3.74444 2.51328 3.4106 2.375 3.0625 2.375C2.7144 2.375 2.38056 2.51328 2.13442 2.75942C1.88828 3.00556 1.75 3.3394 1.75 3.6875C1.75 4.0356 1.88828 4.36944 2.13442 4.61558C2.38056 4.86172 2.7144 5 3.0625 5Z" fill="#6B7280"/>
</svg>
