<svg width="14" height="13" viewBox="0 0 14 13" fill="none" xmlns="http://www.w3.org/2000/svg">
<path d="M1.75 1C1.75 0.516016 1.35898 0.125 0.875 0.125C0.391016 0.125 0 0.516016 0 1V10.1875C0 11.3961 0.978906 12.375 2.1875 12.375H13.125C13.609 12.375 14 11.984 14 11.5C14 11.016 13.609 10.625 13.125 10.625H2.1875C1.94687 10.625 1.75 10.4281 1.75 10.1875V1ZM12.868 3.36797C13.2098 3.02617 13.2098 2.47109 12.868 2.1293C12.5262 1.7875 11.9711 1.7875 11.6293 2.1293L8.75 5.01133L7.18047 3.4418C6.83867 3.1 6.28359 3.1 5.9418 3.4418L2.8793 6.5043C2.5375 6.84609 2.5375 7.40117 2.8793 7.74297C3.22109 8.08477 3.77617 8.08477 4.11797 7.74297L6.5625 5.30117L8.13203 6.8707C8.47383 7.2125 9.02891 7.2125 9.3707 6.8707L12.8707 3.3707L12.868 3.36797Z" fill="white"/>
</svg>
