<svg width="96" height="96" viewBox="0 0 96 96" fill="none" xmlns="http://www.w3.org/2000/svg">
<path d="M48 0C74.5097 0 96 21.4903 96 48C96 74.5097 74.5097 96 48 96C21.4903 96 0 74.5097 0 48C0 21.4903 21.4903 0 48 0Z" fill="#DBEAFE"/>
<path d="M48 0C74.5097 0 96 21.4903 96 48C96 74.5097 74.5097 96 48 96C21.4903 96 0 74.5097 0 48C0 21.4903 21.4903 0 48 0Z" stroke="#E5E7EB"/>
<path d="M64.875 66H31.125V30H64.875V66Z" stroke="#E5E7EB"/>
<g clip-path="url(#clip0_122_83)">
<path d="M43.3125 37.4375C43.3125 35.8848 44.5723 34.625 46.125 34.625H49.875C51.4277 34.625 52.6875 35.8848 52.6875 37.4375V41.1875C52.6875 42.7402 51.4277 44 49.875 44H49.4062V46.3438H58.3125C60.123 46.3438 61.5938 47.8145 61.5938 49.625V51.5H62.0625C63.6152 51.5 64.875 52.7598 64.875 54.3125V58.0625C64.875 59.6152 63.6152 60.875 62.0625 60.875H58.3125C56.7598 60.875 55.5 59.6152 55.5 58.0625V54.3125C55.5 52.7598 56.7598 51.5 58.3125 51.5H58.7812V49.625C58.7812 49.3672 58.5703 49.1562 58.3125 49.1562H49.4062V51.5H49.875C51.4277 51.5 52.6875 52.7598 52.6875 54.3125V58.0625C52.6875 59.6152 51.4277 60.875 49.875 60.875H46.125C44.5723 60.875 43.3125 59.6152 43.3125 58.0625V54.3125C43.3125 52.7598 44.5723 51.5 46.125 51.5H46.5938V49.1562H37.6875C37.4297 49.1562 37.2188 49.3672 37.2188 49.625V51.5H37.6875C39.2402 51.5 40.5 52.7598 40.5 54.3125V58.0625C40.5 59.6152 39.2402 60.875 37.6875 60.875H33.9375C32.3848 60.875 31.125 59.6152 31.125 58.0625V54.3125C31.125 52.7598 32.3848 51.5 33.9375 51.5H34.4062V49.625C34.4062 47.8145 35.877 46.3438 37.6875 46.3438H46.5938V44H46.125C44.5723 44 43.3125 42.7402 43.3125 41.1875V37.4375Z" fill="#2563EB"/>
</g>
<defs>
<clipPath id="clip0_122_83">
<path d="M31.125 32.75H64.875V62.75H31.125V32.75Z" fill="white"/>
</clipPath>
</defs>
</svg>
