<svg width="32" height="32" viewBox="0 0 32 32" fill="none" xmlns="http://www.w3.org/2000/svg">
<path d="M24 0C28.4183 0 32 3.58172 32 8V24C32 28.4183 28.4183 32 24 32H8C3.58172 32 0 28.4183 0 24V8C0 3.58172 3.58172 0 8 0H24Z" fill="#FFEDD5"/>
<path d="M24 0C28.4183 0 32 3.58172 32 8V24C32 28.4183 28.4183 32 24 32H8C3.58172 32 0 28.4183 0 24V8C0 3.58172 3.58172 0 8 0H24Z" stroke="#E5E7EB"/>
<path d="M22.125 26H9.875V6H22.125V26Z" stroke="#E5E7EB"/>
<g clip-path="url(#clip0_285_2516)">
<path d="M14.8324 9.63601C15.3082 9.7153 15.6309 10.1665 15.5516 10.6423L15.2836 12.2501H17.884L18.1984 10.3551C18.2777 9.87937 18.7289 9.55671 19.2047 9.63601C19.6805 9.7153 20.0031 10.1665 19.9238 10.6423L19.6586 12.2501H21.25C21.734 12.2501 22.125 12.6411 22.125 13.1251C22.125 13.6091 21.734 14.0001 21.25 14.0001H19.366L18.7836 17.5001H20.375C20.859 17.5001 21.25 17.8911 21.25 18.3751C21.25 18.8591 20.859 19.2501 20.375 19.2501H18.491L18.1766 21.145C18.0973 21.6208 17.6461 21.9434 17.1703 21.8641C16.6945 21.7848 16.3719 21.3337 16.4512 20.8579L16.7191 19.2528H14.116L13.8016 21.1477C13.7223 21.6235 13.2711 21.9462 12.7953 21.8669C12.3195 21.7876 11.9969 21.3364 12.0762 20.8606L12.3414 19.2501H10.75C10.266 19.2501 9.875 18.8591 9.875 18.3751C9.875 17.8911 10.266 17.5001 10.75 17.5001H12.634L13.2164 14.0001H11.625C11.141 14.0001 10.75 13.6091 10.75 13.1251C10.75 12.6411 11.141 12.2501 11.625 12.2501H13.509L13.8234 10.3551C13.9027 9.87937 14.3539 9.55671 14.8297 9.63601H14.8324ZM14.991 14.0001L14.4086 17.5001H17.009L17.5914 14.0001H14.991Z" fill="#EA580C"/>
</g>
<defs>
<clipPath id="clip0_285_2516">
<path d="M9.875 8.75H22.125V22.75H9.875V8.75Z" fill="white"/>
</clipPath>
</defs>
</svg>
