<svg width="37" height="36" viewBox="0 0 37 36" fill="none" xmlns="http://www.w3.org/2000/svg">
<path d="M29 0C33.4183 0 37 3.58172 37 8V28C37 32.4183 33.4183 36 29 36H8.75C4.33172 36 0.75 32.4183 0.75 28V8C0.75 3.58172 4.33172 0 8.75 0H29Z" fill="#FEE2E2"/>
<path d="M29 0C33.4183 0 37 3.58172 37 8V28C37 32.4183 33.4183 36 29 36H8.75C4.33172 36 0.75 32.4183 0.75 28V8C0.75 3.58172 4.33172 0 8.75 0H29Z" stroke="#E5E7EB"/>
<path d="M25 26H12.75V9H25V26Z" stroke="#E5E7EB"/>
<g clip-path="url(#clip0_290_290)">
<path d="M16.4469 11.234L16.25 11.625H13.625C13.141 11.625 12.75 12.016 12.75 12.5C12.75 12.984 13.141 13.375 13.625 13.375H24.125C24.609 13.375 25 12.984 25 12.5C25 12.016 24.609 11.625 24.125 11.625H21.5L21.3031 11.234C21.1555 10.9359 20.852 10.75 20.5211 10.75H17.2289C16.898 10.75 16.5945 10.9359 16.4469 11.234ZM24.125 14.25H13.625L14.2047 23.5195C14.2484 24.2113 14.8227 24.75 15.5145 24.75H22.2355C22.9273 24.75 23.5016 24.2113 23.5453 23.5195L24.125 14.25Z" fill="#B91C1C"/>
</g>
<defs>
<clipPath id="clip0_290_290">
<path d="M12.75 10.75H25V24.75H12.75V10.75Z" fill="white"/>
</clipPath>
</defs>
</svg>
