<svg width="14" height="24" viewBox="0 0 14 24" fill="none" xmlns="http://www.w3.org/2000/svg">
<path d="M14 24H0V0H14V24Z" stroke="#E5E7EB"/>
<path d="M14 22H0V2H14V22Z" stroke="#E5E7EB"/>
<path d="M14 20H0V4H14V20Z" stroke="#E5E7EB"/>
<path d="M0.25 12C0.25 11.5359 0.434374 11.0908 0.762563 10.7626C1.09075 10.4344 1.53587 10.25 2 10.25C2.46413 10.25 2.90925 10.4344 3.23744 10.7626C3.56563 11.0908 3.75 11.5359 3.75 12C3.75 12.4641 3.56563 12.9092 3.23744 13.2374C2.90925 13.5656 2.46413 13.75 2 13.75C1.53587 13.75 1.09075 13.5656 0.762563 13.2374C0.434374 12.9092 0.25 12.4641 0.25 12ZM5.25 12C5.25 11.5359 5.43437 11.0908 5.76256 10.7626C6.09075 10.4344 6.53587 10.25 7 10.25C7.46413 10.25 7.90925 10.4344 8.23744 10.7626C8.56563 11.0908 8.75 11.5359 8.75 12C8.75 12.4641 8.56563 12.9092 8.23744 13.2374C7.90925 13.5656 7.46413 13.75 7 13.75C6.53587 13.75 6.09075 13.5656 5.76256 13.2374C5.43437 12.9092 5.25 12.4641 5.25 12ZM12 10.25C12.4641 10.25 12.9092 10.4344 13.2374 10.7626C13.5656 11.0908 13.75 11.5359 13.75 12C13.75 12.4641 13.5656 12.9092 13.2374 13.2374C12.9092 13.5656 12.4641 13.75 12 13.75C11.5359 13.75 11.0908 13.5656 10.7626 13.2374C10.4344 12.9092 10.25 12.4641 10.25 12C10.25 11.5359 10.4344 11.0908 10.7626 10.7626C11.0908 10.4344 11.5359 10.25 12 10.25Z" fill="#9CA3AF"/>
</svg>
