<svg width="32" height="32" viewBox="0 0 32 32" fill="none" xmlns="http://www.w3.org/2000/svg">
<path d="M24 0C28.4183 0 32 3.58172 32 8V24C32 28.4183 28.4183 32 24 32H8C3.58172 32 0 28.4183 0 24V8C0 3.58172 3.58172 0 8 0H24Z" fill="#DBEAFE"/>
<path d="M24 0C28.4183 0 32 3.58172 32 8V24C32 28.4183 28.4183 32 24 32H8C3.58172 32 0 28.4183 0 24V8C0 3.58172 3.58172 0 8 0H24Z" stroke="#E5E7EB"/>
<path d="M22.125 26H9.875V6H22.125V26Z" stroke="#E5E7EB"/>
<g clip-path="url(#clip0_285_2510)">
<path d="M16.8203 10.1937C16.6918 9.85195 16.3637 9.625 16 9.625C15.6363 9.625 15.3082 9.85195 15.1797 10.1937L11.4555 20.125H10.75C10.266 20.125 9.875 20.516 9.875 21C9.875 21.484 10.266 21.875 10.75 21.875H13.375C13.859 21.875 14.25 21.484 14.25 21C14.25 20.516 13.859 20.125 13.375 20.125H13.3258L13.818 18.8125H18.182L18.6742 20.125H18.625C18.141 20.125 17.75 20.516 17.75 21C17.75 21.484 18.141 21.875 18.625 21.875H21.25C21.734 21.875 22.125 21.484 22.125 21C22.125 20.516 21.734 20.125 21.25 20.125H20.5445L16.8203 10.1937ZM17.5258 17.0625H14.4742L16 12.991L17.5258 17.0625Z" fill="#2563EB"/>
</g>
<defs>
<clipPath id="clip0_285_2510">
<path d="M9.875 8.75H22.125V22.75H9.875V8.75Z" fill="white"/>
</clipPath>
</defs>
</svg>
